<?xml version="1.0" encoding="iso-8859-1"?>
<!-- Generator: Adobe Illustrator 16.0.0, SVG Export Plug-In . SVG Version: 6.00 Build 0)  -->
<!DOCTYPE svg PUBLIC "-//W3C//DTD SVG 1.1//EN" "http://www.w3.org/Graphics/SVG/1.1/DTD/svg11.dtd">
<svg version="1.1" xmlns="http://www.w3.org/2000/svg" xmlns:xlink="http://www.w3.org/1999/xlink" x="0px" y="0px" width="512px"
	 height="512px" viewBox="0 0 512 512" style="enable-background:new 0 0 512 512;" xml:space="preserve">
<g id="_x31_013_x2C__Australia_x2C__australian_x2C__boomerang_x2C__indigenous_x2C__travel_x2C__weapon">
	<g id="XMLID_416_">
		<polygon id="XMLID_417_" points="85.31,304.509 173.461,392.66 187.642,321.987 83.35,217.696 		"/>
		<polygon id="XMLID_418_" points="217.7,83.346 321.992,187.637 362.855,179.438 392.665,173.457 304.514,85.306 		"/>
		<path id="XMLID_419_" d="M87.205,388.46c0.252,11.176,4.745,21.684,12.649,29.587c8.189,8.189,18.962,12.7,30.334,12.701
			c0.001,0,0.004,0,0.005,0c18.188,0.001,33.768-10.749,40.268-26.946l-84.824-84.825L87.205,388.46z"/>
		<path id="XMLID_420_" d="M125.454,81.263c-0.333-0.007-0.668-0.011-1-0.011c-11.715,0-22.684,4.62-30.885,13.009
			c-8.198,8.385-12.567,19.461-12.302,31.189l1.756,77.777l106.982,106.982l13.118-65.378c4.235-21.104,20.607-37.477,41.711-41.712
			l65.379-13.118L203.231,83.019L125.454,81.263z M132.055,165.684c-0.2-2.754,1.87-5.149,4.624-5.35
			c0.866-0.071,21.727-2.017,23.667-23.742c2.163-24.23,22.467-32.067,32.901-32.826c2.761-0.194,5.149,1.87,5.35,4.624
			c0.2,2.749-1.861,5.14-4.607,5.348c-0.946,0.078-21.747,2.051-23.684,23.744c-2.163,24.23-22.467,32.067-32.901,32.826
			c-0.124,0.009-0.246,0.013-0.368,0.013C134.44,170.322,132.246,168.315,132.055,165.684z M197.45,173.764
			c-0.892,0.073-21.748,2.021-23.688,23.744c-2.163,24.23-22.467,32.067-32.901,32.826c-0.124,0.009-0.246,0.013-0.368,0.013
			c-2.596,0-4.79-2.006-4.981-4.637c-0.2-2.754,1.87-5.149,4.624-5.35c0.866-0.071,21.727-2.017,23.667-23.742
			c2.163-24.23,22.467-32.067,32.901-32.826c2.753-0.189,5.149,1.87,5.35,4.624C202.253,171.163,200.194,173.553,197.45,173.764z"/>
		<path id="XMLID_424_" d="M418.053,99.85c-7.905-7.904-18.413-12.396-29.588-12.649l-69.483-1.569l84.828,84.829
			c12.866-5.154,22.376-16.16,25.711-29.973C433.072,125.774,428.785,110.583,418.053,99.85z"/>
	</g>
</g>
<g id="Layer_1">
</g>
</svg>
